<svg x="0" y="0" width="250px" height="31px" overflow="inherit" viewBox="0, 0, 250, 31" preserveAspectRatio="xMidYMid" font-size="0" xml:space="default" xmlns="http://www.w3.org/2000/svg" xmlns:xlink="http://www.w3.org/1999/xlink" xmlns:xml="http://www.w3.org/XML/1998/namespace" version="1.1"><title xml:space="default">Совкомбанк</title><desc xml:space="default">Created with Sketch.</desc><g fill-rule="evenOdd" id="Page-1" xml:space="default" style="fill:none;"><g transform="translate(0, -35)" id="Artboard" xml:space="default"><g transform="translate(0, 35)" id="Совкомбанк" xml:space="default"><path d="M18.4782 0.3212209 L18.4782 8.193314 L15.38081 8.193314 C11.46802 8.193314 8.315407 11.29942 8.315407 15.15552 C8.315407 19.01017 11.46802 22.11628 15.37936 22.11628 L18.4782 22.11628 L18.4782 29.98837 C25.54215 28.64971 30.81541 22.54506 30.81541 15.15407 C30.81541 7.818314 25.5436 1.713663 18.4782 0.3212209" id="Path" xml:space="default" style="fill:#003791;" /><path d="M15.38081 24.57849 C10.10901 24.57849 5.813953 20.34884 5.813953 15.15552 C5.813953 9.96221 10.10756 5.731105 15.37791 5.731105 L15.97674 5.731105 L15.97674 0 L15.37936 0 C6.902617 0 0 6.800872 0 15.15407 C0 23.5625 6.902617 30.36337 15.38081 30.36337 L15.9782 30.36337 L15.9782 24.5814 L15.38081 24.5814 L15.38081 24.57849 z M52.55378 20.4564 C51.30848 21.46382 49.75439 22.01196 48.15261 22.00872 C44.29361 22.00872 41.19622 18.9564 41.19622 15.15407 C41.19622 11.3532 44.29215 8.300872 48.15261 8.300872 C49.83224 8.293672 51.45615 8.902895 52.71657 10.01308 L55.16279 7.604651 C53.23928 5.873019 50.74074 4.918258 48.15261 4.925872 C42.39099 4.925872 37.7718 9.531977 37.7718 15.15407 C37.7718 20.77762 42.39099 25.43605 48.15261 25.43605 C50.81541 25.43605 53.20639 24.47238 55 22.86628 L52.55378 20.4564 L52.55378 20.4564 z M163.1526 5.729651 L155.4898 14.83285 L147.7718 5.729651 L147.718 5.837209 L147.718 5.729651 L144.6192 5.729651 L144.6192 24.57994 L147.718 24.57994 L147.718 10.76308 L155.4898 19.86628 L163.1526 10.9782 L163.1526 24.57994 L166.1962 24.57994 L166.1962 5.729651 L163.1526 5.729651 z M78.2064 15.15407 C78.2064 20.8314 73.53197 25.38227 67.82558 25.38227 C62.06541 25.38227 57.44622 20.77762 57.44622 15.15407 C57.44622 9.531977 62.11919 4.925872 67.82558 4.925872 C73.53197 4.925872 78.2064 9.531977 78.2064 15.15407 L78.2064 15.15407 z M74.7282 15.15407 C74.7282 11.3532 71.63081 8.300872 67.7718 8.300872 C63.91279 8.300872 60.81541 11.3532 60.81541 15.15407 C60.81541 18.9564 63.91279 22.00872 67.7718 22.00872 C71.63081 22.00872 74.7282 18.9564 74.7282 15.15407 L74.7282 15.15407 z M141.468 15.15407 C141.468 20.8314 136.7936 25.38227 131.0872 25.38227 C125.3256 25.38227 120.7064 20.77762 120.7064 15.15407 C120.7064 9.531977 125.3808 4.925872 131.0872 4.925872 C136.8474 4.925872 141.468 9.531977 141.468 15.15407 L141.468 15.15407 z M138.0436 15.15407 C138.0436 11.3532 134.9462 8.300872 131.0872 8.300872 C127.2282 8.300872 124.1308 11.3532 124.1308 15.15407 C124.1308 18.9564 127.2282 22.00872 131.0872 22.00872 C134.891 22.00872 138.0436 18.9564 138.0436 15.15407 L138.0436 15.15407 z M120.6526 5.729651 L116.4666 5.729651 L108.5872 13.65552 L105.3808 13.65552 L105.3808 5.729651 L102.3372 5.729651 L102.3372 24.57994 L105.3808 24.57994 L105.3808 16.70785 L108.532 16.70785 L116.4128 24.57994 L120.5436 24.57994 L111.1962 15.20785 L120.6526 5.729651 z" id="Shape" xml:space="default" style="fill:#FF4B5F;" /><path d="M249.5639 5.729651 L245.4361 5.729651 L237.5 13.65552 L234.2936 13.65552 L234.2936 5.729651 L231.25 5.729651 L231.25 24.57994 L234.2936 24.57994 L234.2936 16.70785 L237.5 16.70785 L245.3256 24.57994 L249.4564 24.57994 L240.1628 15.20785 L249.5639 5.729651 z M204.5639 24.57849 L207.9361 24.57849 L199.5102 5.729651 L196.032 5.729651 L187.609 24.57994 L190.9782 24.57994 L192.8256 20.51017 L202.718 20.51017 L204.5639 24.57994 L204.5639 24.57849 z M194.1861 17.51017 L197.7718 9.585755 L201.359 17.51017 L194.1846 17.51017 L194.1861 17.51017 z" id="Shape#1" xml:space="default" style="fill:#003791;" /><path d="M98.42442 19.11773 C98.42457 17.61129 97.79354 16.17369 96.68459 15.15407 C97.71657 14.13663 98.42442 12.74419 98.42442 11.19186 C98.4148 8.168371 95.95809 5.724022 92.93459 5.729651 L81.73982 5.729641 L81.73982 24.63227 L92.93459 24.63227 C95.9782 24.57994 98.42442 22.11628 98.42442 19.11773 L98.42442 19.11773 z M84.83721 8.78343 L92.88081 8.78343 C94.23982 8.78343 95.32558 9.853198 95.32558 11.19186 C95.32558 12.53052 94.23982 13.60174 92.88081 13.60174 L84.83721 13.60174 L84.83721 8.781977 L84.83721 8.78343 z M92.88081 21.57994 L84.83721 21.57994 L84.83721 16.70785 L92.93459 16.70785 C94.2936 16.70785 95.38081 17.8314 95.38081 19.11773 C95.32558 20.45494 94.23982 21.57994 92.88081 21.57994 L92.88081 21.57994 z" id="Shape#2" xml:space="default" style="fill:#FF4B5F;" /><path d="M224.3474 5.78343 L224.3474 13.65552 L213.2064 13.65552 L213.2064 5.78343 L210.109 5.78343 L210.109 24.52616 L213.2064 24.52616 L213.2064 16.7064 L224.3474 16.7064 L224.3474 24.52616 L227.4462 24.52616 L227.4462 5.78343 L224.3474 5.78343 z M186.5218 19.11773 C186.5218 16.11773 184.0218 13.65552 180.9782 13.65552 L172.9346 13.65552 L172.9346 8.781977 L184.6744 8.781977 L184.6744 5.729651 L169.8372 5.729651 L169.8372 24.63227 L180.9782 24.63227 C184.0218 24.57994 186.5218 22.11628 186.5218 19.11773 z M180.9782 21.57994 L172.9346 21.57994 L172.9346 16.70785 L180.9782 16.70785 C182.3372 16.70785 183.4244 17.8314 183.4244 19.11773 C183.4244 20.45494 182.3372 21.57994 180.9782 21.57994 z" id="Shape#3" xml:space="default" style="fill:#003791;" /></g></g></g></svg>