<svg width="194" height="34" viewBox="0 0 194 34" fill="none" xmlns="http://www.w3.org/2000/svg"><path fill-rule="evenodd" clip-rule="evenodd" d="M0 7.894v14.263l.002.169c2.32 4.302 6.806 7.26 11.997 7.407-4.133-.205-7.43-3.527-7.43-7.576V5.834C4.569 4.82 5.391 4 6.399 4 3.616 4 1.203 4.58 0 6.894" fill="#231F20"/><mask id="a" maskUnits="userSpaceOnUse" x="0" y="4" width="12" height="26"><path fill-rule="evenodd" clip-rule="evenodd" d="M0 7.894v14.263l.002.169c2.32 4.302 6.806 7.26 11.997 7.407-4.133-.205-7.43-3.527-7.43-7.576V5.834C4.569 4.82 5.391 4 6.399 4 3.616 4 1.203 4.58 0 6.894" fill="#fff"/></mask><g mask="url(#a)"><path fill="url(#b)" d="M-3 3H9.004v28H-3z"/></g><path fill-rule="evenodd" clip-rule="evenodd" d="M6.399 0C2.869 0 0 2.875 0 6.41v2.06a7.208 7.208 0 0 1 6.399-3.894h4.537a2.286 2.286 0 0 0 2.284-2.288A2.286 2.286 0 0 0 10.936 0H6.4z" fill="#231F20"/><mask id="c" maskUnits="userSpaceOnUse" x="0" y="0" width="14" height="9"><path fill-rule="evenodd" clip-rule="evenodd" d="M6.399 0C2.869 0 0 2.875 0 6.41v2.06a7.208 7.208 0 0 1 6.399-3.894h4.537a2.286 2.286 0 0 0 2.284-2.288A2.286 2.286 0 0 0 10.936 0H6.4z" fill="#fff"/></mask><g mask="url(#c)"><path transform="rotate(-23.1 -2.914 2)" fill="url(#d)" d="M-2.914 2H12.09v13.001H-2.914z"/></g><path fill-rule="evenodd" clip-rule="evenodd" d="M37.107 10.436c0 .366-.035.725-.102 1.072a5.499 5.499 0 0 1-.8 1.973c-.682 1.08-.51 2.266.542 2.867a6.97 6.97 0 0 1 1.805 1.406 7.216 7.216 0 0 1 1.896 4.895c0 3.648-2.673 6.662-6.097 7.051 4.924-.213 8.956-3.1 10.664-7.19a11.752 11.752 0 0 0-3.927-8.661c.383-1.065.589-2.215.589-3.413 0-.641-.144-1.849-.26-2.457-2.453-2.2-5.723-3.56-9.24-3.56a8.44 8.44 0 0 0-.25.006c2.822.072 5.18 3.06 5.18 6.01z" fill="#231F20"/><mask id="e" maskUnits="userSpaceOnUse" x="31" y="4" width="15" height="26"><path fill-rule="evenodd" clip-rule="evenodd" d="M37.107 10.436c0 .366-.035.725-.102 1.072a5.499 5.499 0 0 1-.8 1.973c-.682 1.08-.51 2.266.542 2.867a6.97 6.97 0 0 1 1.805 1.406 7.216 7.216 0 0 1 1.896 4.895c0 3.648-2.673 6.662-6.097 7.051 4.924-.213 8.956-3.1 10.664-7.19a11.752 11.752 0 0 0-3.927-8.661c.383-1.065.589-2.215.589-3.413 0-.641-.144-1.849-.26-2.457-2.453-2.2-5.723-3.56-9.24-3.56a8.44 8.44 0 0 0-.25.006c2.822.072 5.18 3.06 5.18 6.01z" fill="#fff"/></mask><g mask="url(#e)"><path fill="url(#f)" d="M32.01 4h13.004v26H32.01z"/></g><path fill-rule="evenodd" clip-rule="evenodd" d="M31.83 0c4.776 0 8.763 3.51 9.624 8.135-2.454-2.2-5.724-3.559-9.24-3.559-.084 0-.168.003-.251.005a2.3 2.3 0 0 0-.133-.005h-7.019v17.157c0 6.706-5.565 12.163-12.406 12.163C5.621 33.896.095 28.531 0 21.902c2.319 4.302 6.806 7.26 11.997 7.408.134.005.271.01.408.01 4.32 0 7.836-3.404 7.836-7.587V0h11.59z" fill="#231F20"/><mask id="g" maskUnits="userSpaceOnUse" x="0" y="0" width="42" height="34"><path fill-rule="evenodd" clip-rule="evenodd" d="M31.83 0c4.776 0 8.763 3.51 9.624 8.135-2.454-2.2-5.724-3.559-9.24-3.559-.084 0-.168.003-.251.005a2.3 2.3 0 0 0-.133-.005h-7.019v17.157c0 6.706-5.565 12.163-12.406 12.163C5.621 33.896.095 28.531 0 21.902c2.319 4.302 6.806 7.26 11.997 7.408.134.005.271.01.408.01 4.32 0 7.836-3.404 7.836-7.587V0h11.59z" fill="#fff"/></mask><g mask="url(#g)"><path transform="rotate(-21.714 12.33 22.383) skewX(.012)" fill="url(#h)" d="M0 0h51.014v47.002H0z"/></g><path fill-rule="evenodd" clip-rule="evenodd" d="M34.429 29.19a6.82 6.82 0 0 1-.75.043h-7.386a2.288 2.288 0 0 0 0 4.576h7.387c6.293 0 11.414-5.236 11.414-11.67l-.001-.14c-1.708 4.09-5.74 6.978-10.664 7.19z" fill="#231F20"/><mask id="i" maskUnits="userSpaceOnUse" x="24" y="21" width="22" height="13"><path fill-rule="evenodd" clip-rule="evenodd" d="M34.429 29.19a6.82 6.82 0 0 1-.75.043h-7.386a2.288 2.288 0 0 0 0 4.576h7.387c6.293 0 11.414-5.236 11.414-11.67l-.001-.14c-1.708 4.09-5.74 6.978-10.664 7.19z" fill="#fff"/></mask><g mask="url(#i)"><path fill="url(#j)" d="M24.007 22h23.007v13H24.007z"/></g><path fill-rule="evenodd" clip-rule="evenodd" d="M57.253 31.36c.183 0 .212-.02.212-.168l.004-1.9c.373.083.754.123 1.136.12 1.613 0 2.357-1.193 2.357-2.702S60.318 24 58.422 24a5.78 5.78 0 0 0-2.221.412.296.296 0 0 0-.2.308v6.472c0 .14.063.168.213.168h1.039zm.212-5.994c.249-.07.506-.107.764-.111l-.004.004c.753 0 1.206.362 1.206 1.439s-.462 1.488-1.135 1.488c-.28 0-.56-.038-.831-.11v-2.71zm8.624 1.763c.47 0 .753-.21.753-.892l.004.008c0-1.423-.828-2.245-2.35-2.245-1.521 0-2.494 1.011-2.494 2.759 0 1.866.835 2.689 2.582 2.689A3.52 3.52 0 0 0 66.359 29c.092-.062.142-.12.092-.239l-.32-.715c-.05-.111-.088-.12-.25-.07a3.205 3.205 0 0 1-1.156.247c-.673 0-1.177-.251-1.206-1.094h2.57zm-.661-.913h-1.875a1.008 1.008 0 0 1 .973-1.024c.71 0 .902.44.902 1.024z" fill="#010101"/><path d="M69.277 29.214h-1.093c-.12 0-.18 0-.18-.156v-4.896c0-.14.06-.16.18-.16h1.093c.13 0 .18 0 .18.16v1.726h.469c.353 0 .653-.11.832-.666l.353-1.093a.154.154 0 0 1 .17-.128h1.115c.129 0 .129.111.12.169l-.37 1.299c-.07.402-.336.743-.71.913.451.097.795.46.864.912l.512 1.719c0 .057.029.177-.13.177h-1.155a.158.158 0 0 1-.17-.12l-.475-1.529a.777.777 0 0 0-.831-.567h-.59v2.055c0 .14-.05.157-.18.157" fill="#010101"/><path fill-rule="evenodd" clip-rule="evenodd" d="M74.008 26.73c0 1.719.757 2.722 2.495 2.722l.016-.004c1.73 0 2.562-1.053 2.562-2.739 0-1.685-.878-2.709-2.54-2.709-1.581 0-2.533 1.011-2.533 2.73zm1.509-.025c0-.904.34-1.488 1.043-1.488l-.016.02c.752 0 1.002.695 1.002 1.518 0 .822-.292 1.467-1.015 1.467-.723 0-1.014-.526-1.014-1.517z" fill="#010101"/><path d="M81.237 29.21h-1.006c-.15 0-.22-.05-.22-.198v-4.823c0-.14.07-.189.22-.189h1.006c.192 0 .23.029.23.19v1.693h1.874v-1.694c0-.14.063-.189.22-.189h1.007c.191 0 .22.029.22.19v4.822c0 .168-.029.197-.22.197h-1.002c-.162 0-.22-.05-.22-.197v-1.978H81.47v1.994c0 .169-.041.198-.228.198m8.568-1.299c.17-.058.212-.058.262.09l.278.744c.063.128.07.198-.07.28a4.043 4.043 0 0 1-1.86.41c-1.567 0-2.407-.912-2.407-2.7 0-1.698.965-2.75 2.495-2.75a3.778 3.778 0 0 1 1.589.336c.17.078.178.12.112.28l-.283.764c-.062.149-.129.14-.312.091a3.361 3.361 0 0 0-.994-.177c-.794 0-1.093.674-1.093 1.46 0 .785.24 1.41 1.123 1.41.395-.01.787-.087 1.155-.23m4.292-2.759v3.84c0 .169-.042.197-.233.197h-.994c-.17 0-.229-.049-.229-.197v-3.84h-1.426c-.15 0-.2-.07-.2-.218v-.728c0-.177.03-.23.2-.23h4.337c.162 0 .2.05.2.23v.724c0 .148-.05.218-.2.218l-1.455.004z" fill="#010101"/><path fill-rule="evenodd" clip-rule="evenodd" d="M98.276 31.36c.183 0 .212-.02.212-.168v-1.9c.372.083.753.123 1.135.12 1.613 0 2.358-1.193 2.358-2.702s-.645-2.71-2.54-2.71a5.776 5.776 0 0 0-2.221.412.296.296 0 0 0-.2.308v6.472c0 .14.062.168.212.168h1.044zm.211-5.994c.25-.07.507-.106.765-.111l-.004.004c.752 0 1.206.362 1.206 1.439s-.462 1.488-1.135 1.488a3.25 3.25 0 0 1-.832-.11v-2.71z" fill="#010101"/><path d="M106.413 30.06a1.66 1.66 0 0 1-1.808 1.27 3.45 3.45 0 0 1-.994-.14c-.162-.04-.2-.077-.162-.217l.17-.785c.042-.16.079-.148.22-.12.162.034.326.05.491.05.474 0 .715-.111.865-.576l.183-.534h-.291c-.3 0-.416-.07-.524-.411l-1.526-4.408c-.05-.14.029-.189.129-.189h1.177c.199 0 .249.029.291.177l.573 2.006.474 1.727h.063l.511-1.756.603-1.957c.042-.148.079-.197.283-.197h1.193c.113 0 .15.058.113.16l-2.03 5.925-.004-.025zm3.883-.846h-1.093c-.121 0-.179 0-.179-.156v-4.896c0-.14.058-.16.179-.16h1.093c.129 0 .179 0 .179.16v1.726h.474c.349 0 .653-.11.832-.666l.353-1.093a.154.154 0 0 1 .171-.128h1.114c.129 0 .129.111.121.169l-.37 1.299c-.07.402-.336.743-.711.913.452.097.796.46.865.912l.511 1.719c0 .057.029.177-.129.177h-1.156a.157.157 0 0 1-.17-.12l-.474-1.529a.778.778 0 0 0-.832-.567h-.574v2.055c0 .14-.05.157-.179.157m9.52-1.136l.47.04c.283 0 .333.19.32.412l-.112 2.105a.134.134 0 0 1-.038.11.134.134 0 0 1-.112.038h-.894c-.12 0-.15-.05-.162-.16l-.05-1.37h-3.647c-.47 0-.59-.258-.59-.624v-4.424c0-.128.071-.177.212-.177h1.044c.178 0 .199.029.199.177v3.881h1.888v-3.881c0-.128.058-.177.212-.177h1.052c.162 0 .2.029.2.177l.008 3.873zm2.193-3.883c0-.12.05-.16.179-.16h1.073c.162 0 .191.028.191.16v3.038h.05c.524-.855.611-1.011.781-1.27.25-.387.562-.893 1.003-1.6a.595.595 0 0 1 .623-.329h.491c.37 0 .561.12.561.555v4.498c0 .128-.05.156-.178.156h-1.086c-.149 0-.191 0-.191-.156v-2.976h-.05c-.303.456-.574.92-.865 1.369-.291.448-.611.962-.931 1.439a.588.588 0 0 1-.624.329h-.47c-.461 0-.561-.19-.561-.555l.004-4.498zm6.003 0c0-.12.05-.16.179-.16h1.072c.163 0 .192.028.192.16v3.038h.05c.524-.855.611-1.011.781-1.27.25-.387.562-.893 1.003-1.6a.595.595 0 0 1 .623-.329h.491c.37 0 .561.12.561.555v4.498c0 .128-.05.156-.179.156h-1.085c-.149 0-.191 0-.191-.156v-2.976h-.05c-.304.456-.574.92-.865 1.369-.291.448-.611.962-.931 1.439a.588.588 0 0 1-.624.329h-.47c-.461 0-.561-.19-.561-.555l.004-4.498zm10.004 0c0-.12.05-.16.179-.16h1.073c.162 0 .191.028.191.16v3.038h.05c.524-.855.611-1.011.782-1.27.249-.387.561-.893 1.002-1.6a.596.596 0 0 1 .624-.329h.49c.37 0 .562.12.562.555v4.498c0 .128-.05.156-.179.156h-1.085c-.15 0-.192 0-.192-.156v-2.976h-.05c-.303.456-.573.92-.864 1.369-.292.448-.612.962-.932 1.439a.588.588 0 0 1-.624.329h-.47c-.461 0-.561-.19-.561-.555l.004-4.498z" fill="#010101"/><path fill-rule="evenodd" clip-rule="evenodd" d="M148.298 31.36c.183 0 .212-.02.212-.168v-1.9c.373.083.754.123 1.135.12 1.614 0 2.358-1.193 2.358-2.702s-.644-2.71-2.54-2.71a5.774 5.774 0 0 0-2.221.412.296.296 0 0 0-.2.308v6.472c0 .14.063.168.213.168h1.043zm.212-5.994c.249-.07.506-.107.765-.111l-.005.004c.753 0 1.206.362 1.206 1.439s-.461 1.488-1.135 1.488c-.281 0-.56-.038-.831-.11v-2.71zm6.871 4.074a5.488 5.488 0 0 0 2.129-.37l-.004.02a.357.357 0 0 0 .212-.386v-2.878c0-1.2-.67-1.826-2.117-1.826a5.977 5.977 0 0 0-1.937.297c-.1.037-.142.086-.1.226l.162.695c.029.127.079.168.249.127a6.59 6.59 0 0 1 1.414-.19c.744 0 .873.338.873.704v.16h-1.102c-1.434 0-2.116.753-2.116 1.776 0 .921.528 1.645 2.337 1.645zm.091-2.455h.785l.004 1.2a2.936 2.936 0 0 1-.831.128c-.532 0-.873-.168-.873-.625 0-.633.545-.703.915-.703z" fill="#010101"/><path d="M159.834 25.414c-.163.062-.213.03-.25-.057l-.233-.666c-.071-.16-.079-.218.079-.28a4.674 4.674 0 0 1 1.93-.411c1.247 0 2.037.448 2.037 1.398a1.36 1.36 0 0 1-.765 1.143v.041c.541.144.918.626.923 1.18 0 1.122-1.085 1.67-2.37 1.67a5.429 5.429 0 0 1-2.017-.35c-.149-.07-.133-.148-.1-.247l.262-.724c.042-.098.092-.131.271-.078.465.14.948.221 1.434.239.782 0 1.044-.317 1.044-.646s-.333-.534-1.156-.547c-.25 0-.383-.09-.383-.316v-.3c0-.226.15-.296.391-.309.661-.04.965-.218.965-.526 0-.308-.353-.436-.832-.436a5.178 5.178 0 0 0-1.222.218" fill="#010101"/><path fill-rule="evenodd" clip-rule="evenodd" d="M169.07 26.36c.524.182.863.685.831 1.233 0 .962-.831 1.608-1.929 1.608h-2.32c-.47 0-.603-.169-.603-.506v-4.14c0-.337.1-.555.561-.555h2.341c.944 0 1.718.35 1.718 1.32a1.142 1.142 0 0 1-.591.995l-.008.045zm-2.591-.411h1.214a.419.419 0 0 0 .328-.115.408.408 0 0 0 .125-.321.413.413 0 0 0-.416-.411h-1.247l-.004.847zm0 .953h1.259a.558.558 0 0 1 .455.14.54.54 0 0 1 .177.436.567.567 0 0 1-.182.446.581.581 0 0 1-.462.15h-1.247v-1.172z" fill="#010101"/><path d="M171.06 24.167c0-.12.05-.16.179-.16h1.073c.162 0 .191.028.191.16v3.038h.05c.524-.855.611-1.011.782-1.27.249-.387.561-.893 1.002-1.6a.595.595 0 0 1 .623-.329h.491c.37 0 .561.12.561.555v4.498c0 .128-.049.156-.178.156h-1.086c-.149 0-.191 0-.191-.156v-2.976h-.033c-.304.456-.574.92-.865 1.369-.291.448-.611.962-.931 1.439a.589.589 0 0 1-.624.329h-.491c-.461 0-.561-.19-.561-.555l.008-4.498zm9.075 1.009v3.84c0 .169-.041.197-.232.197h-.994c-.171 0-.229-.049-.229-.197v-3.84h-1.426c-.15 0-.2-.07-.2-.218v-.728c0-.177.029-.23.2-.23h4.337c.162 0 .199.05.199.23v.724c0 .148-.05.218-.199.218l-1.456.004zm2.922-1.009c0-.12.05-.16.179-.16h1.073c.162 0 .191.028.191.16v3.038h.05c.524-.855.611-1.011.782-1.27.249-.387.561-.893 1.002-1.6a.596.596 0 0 1 .624-.329h.49c.37 0 .562.12.562.555v4.498c0 .128-.05.156-.179.156h-1.086c-.149 0-.191 0-.191-.156v-2.976h-.05c-.303.456-.574.92-.865 1.369-.291.448-.611.962-.931 1.439a.588.588 0 0 1-.624.329h-.466c-.461 0-.561-.19-.561-.555v-4.498z" fill="#010101"/><path fill-rule="evenodd" clip-rule="evenodd" d="M191.816 27.236h.782l-.033 1.817c0 .12.029.16.199.16h1.036c.137 0 .199-.04.199-.16v-4.666c-.029-.239-.212-.387-.561-.387h-2.25c-1.131 0-1.825.674-1.825 1.558-.08.613.311 1.19.915 1.349-.39.096-.69.404-.774.793a87.84 87.84 0 0 0-.44 1.349.058.058 0 0 0 0 .041v.02c0 .058.037.1.149.1h1.007c.133 0 .282-.021.332-.21l.131-.422c.079-.255.159-.51.231-.758.137-.473.441-.584.902-.584zm.782-.963h-1.043l.004-.004c-.482 0-.715-.226-.715-.583a.59.59 0 0 1 .207-.446.601.601 0 0 1 .475-.138h1.072v1.171z" fill="#010101"/><path d="M65.85 5c.208 0 .279.12.208.292l-3.547 9.736c-.624 1.727-1.593 2.31-3.377 2.31a5.577 5.577 0 0 1-1.664-.238c-.295-.086-.361-.136-.312-.378l.28-1.419c.053-.255.136-.222.415-.189.315.046.634.07.952.07.778 0 1.144-.086 1.419-.855l.278-.769h-.45c-.552 0-.727-.12-.968-.736L56.035 5.33c-.103-.222.034-.325.242-.325h2.008c.416 0 .487.07.57.341l1.281 3.475.97 2.824h.12l.919-2.96 1.09-3.318c.103-.292.174-.358.536-.358L65.85 5z" fill="#010101"/><path fill-rule="evenodd" clip-rule="evenodd" d="M69.17 20.67c.307 0 .361-.034.361-.293l.004-3.256a8.638 8.638 0 0 0 1.955.206c2.786 0 4.067-2.04 4.067-4.655 0-2.614-1.106-4.67-4.379-4.67a9.979 9.979 0 0 0-3.826.682.51.51 0 0 0-.345.53v11.163c0 .243.104.292.362.292h1.8zm.352-10.345c.428-.118.87-.182 1.314-.19l-.004.017c1.301 0 2.079.605 2.079 2.467 0 1.863-.794 2.566-1.955 2.566a5.602 5.602 0 0 1-1.434-.19v-4.67zm11.521 7.095a9.47 9.47 0 0 0 3.668-.633l-.016-.004a.62.62 0 0 0 .362-.666V11.15C85.057 9.078 83.9 8 81.405 8a10.334 10.334 0 0 0-3.327.515c-.175.086-.245.172-.175.41l.3 1.148c.033.222.12.292.416.222a11.35 11.35 0 0 1 2.44-.325c1.282 0 1.506.6 1.506 1.234v.275h-1.904c-2.475 0-3.652 1.3-3.652 3.063 0 1.645.92 2.878 4.034 2.878zm.12-4.268h1.367l-.005 2.089a4.993 4.993 0 0 1-1.434.222c-.914 0-1.504-.292-1.504-1.077 0-1.114.935-1.234 1.575-1.234z" fill="#010101"/><path d="M94.983 8.004c.831 0 1.04.325 1.04 1.044v7.615c0 .275-.088.325-.417.325H93.86c-.312 0-.416-.087-.416-.342v-6.623h-2.096l-.05.888c-.241 3.988-.537 5.612-3.236 6.434-.312.103-.416 0-.52-.205l-.465-1.164c-.104-.292-.104-.378.191-.53 1.248-.563 1.472-1.094 1.697-4.568l.12-1.867C89.12 8.26 89.397 8 90.158 8l4.825.004z" fill="#010101"/><path fill-rule="evenodd" clip-rule="evenodd" d="M98.019 15.993c0 .612.187.99 1.09.99l3.834-.016c1.921 0 3.41-1.332 3.41-3.096 0-.904-.291-3.08-3.685-3.08h-2.121V8.326c0-.276-.087-.325-.416-.325h-1.73c-.262 0-.382.086-.382.325v7.668zm2.51-3.29h2.063c.32-.027.636.083.868.303.232.22.356.527.342.845.017.327-.111.646-.35.872a1.15 1.15 0 0 1-.898.308h-2.025v-2.327z" fill="#010101"/><path d="M114.569 14.772c.295-.103.362-.103.449.156l.487 1.283c.104.222.12.34-.121.48a6.973 6.973 0 0 1-3.202.704c-2.699 0-4.159-1.575-4.159-4.654 0-2.928 1.663-4.74 4.308-4.74a6.522 6.522 0 0 1 2.737.583c.295.136.312.206.191.481l-.486 1.316c-.104.259-.225.238-.537.156a5.747 5.747 0 0 0-1.713-.309c-1.368 0-1.888 1.164-1.888 2.517 0 1.352.416 2.43 1.938 2.43a5.928 5.928 0 0 0 1.992-.412m4.662 2.225h-1.888c-.208 0-.312-.033-.312-.276v-8.44c0-.24.104-.272.312-.272h1.888c.225 0 .312.033.312.271v2.977h.832c.607 0 1.127-.19 1.435-1.147l.57-1.875a.265.265 0 0 1 .295-.222h1.921c.225 0 .225.19.208.292l-.64 2.24a2.143 2.143 0 0 1-1.248 1.575v.033c1.002.255 1.248.823 1.489 1.575l.882 2.96c0 .103.054.309-.225.309h-1.992a.273.273 0 0 1-.295-.206l-.832-2.635a1.343 1.343 0 0 0-1.456-.975h-.985v3.544c0 .239-.088.276-.312.276m7.879-8.713c0-.206.087-.272.312-.272h1.855c.274 0 .328.054.328.272v5.242h.088c.898-1.472 1.056-1.748 1.351-2.192.416-.666.969-1.541 1.73-2.754.193-.401.629-.63 1.073-.564h.832c.64 0 .969.206.969.958v7.75c0 .223-.087.276-.312.276h-1.871c-.258 0-.329-.033-.329-.276v-5.151h-.087c-.52.79-.986 1.591-1.489 2.36-.503.769-1.056 1.644-1.61 2.467-.19.403-.628.632-1.073.563h-.831c-.799 0-.969-.325-.969-.958l.033-7.721z" fill="#010101"/><path fill-rule="evenodd" clip-rule="evenodd" d="M139.077 5.117a.322.322 0 0 0 .003.004l-.004.008c.707 1.028 1.834 1.986 3.202 1.986 1.227 0 2.354-.654 3.427-2.056a.142.142 0 0 1 .01-.016c.064-.097.132-.2-.081-.395l-.645-.555a.934.934 0 0 0-.018-.014c-.128-.093-.183-.133-.398.047-1.093 1.044-1.646 1.196-2.199 1.196-.674 0-1.418-.427-2.146-1.163a1.543 1.543 0 0 1-.054-.05c-.115-.108-.165-.154-.362-.004l-.677.638c-.204.169-.108.303-.058.374zm-.686 2.824c-.225 0-.312.07-.312.276l-.042 7.721c0 .633.171.958.969.958h.832c.445.07.882-.16 1.073-.563.356-.53.712-1.08 1.054-1.611.19-.294.376-.582.555-.856.244-.372.478-.751.714-1.133.253-.408.507-.82.775-1.227h.087v5.152c0 .242.071.275.329.275h1.867c.225 0 .312-.053.312-.275v-7.75c0-.753-.328-.958-.969-.958h-.832a1.026 1.026 0 0 0-1.077.563l-.878 1.398-.852 1.357c-.215.323-.357.557-.766 1.23l-.585.96h-.088v-5.24c0-.226-.054-.276-.328-.276h-1.838zm14.653-1.777v9.789c0 .736.208 1.028 1.04 1.028h4.346c2.341 0 4.158-1.591 4.158-3.766 0-1.164-.278-3.87-4.395-3.87h-2.496v-2.12h5.203c.241 0 .312-.087.312-.326V5.38c0-.293-.054-.379-.312-.379h-6.75c-.827 0-1.106.378-1.106 1.164zm2.652 5.353h2.495v-.021c.438-.043.873.104 1.192.403.32.299.492.72.471 1.155.03.445-.136.88-.454 1.195a1.574 1.574 0 0 1-1.209.45h-2.495v-3.182zm12.387 5.903a9.477 9.477 0 0 0 3.672-.633l-.012-.004a.619.619 0 0 0 .361-.666V11.15c0-2.072-1.156-3.15-3.651-3.15a10.336 10.336 0 0 0-3.327.515c-.175.086-.245.172-.175.41l.291 1.148c.038.222.121.292.416.222.8-.197 1.618-.305 2.441-.325 1.281 0 1.506.6 1.506 1.234v.275H167.7c-2.474 0-3.651 1.3-3.651 3.063 0 1.645.919 2.878 4.034 2.878zm.127-4.268h1.367l-.004 2.089a4.988 4.988 0 0 1-1.434.222c-.918 0-1.505-.292-1.505-1.077 0-1.114.936-1.234 1.576-1.234z" fill="#010101"/><path d="M177.167 16.983h-1.73c-.258 0-.383-.086-.383-.34V8.324c0-.239.121-.325.383-.325h1.73c.328 0 .416.05.416.325v2.927h3.235V8.325c0-.239.104-.325.379-.325h1.73c.328 0 .382.05.382.325v8.317c0 .292-.049.341-.382.341h-1.73c-.275 0-.379-.086-.379-.34V13.2h-3.235v3.441c0 .292-.071.341-.416.341zm10.092.011h-1.888c-.208 0-.312-.033-.312-.276v-8.44c0-.24.104-.272.312-.272h1.888c.224 0 .312.033.312.271v2.977h.831c.607 0 1.127-.189 1.439-1.147l.607-1.883a.267.267 0 0 1 .296-.222h1.921c.225 0 .225.19.208.292l-.64 2.24a2.144 2.144 0 0 1-1.248 1.575v.033c1.002.255 1.248.822 1.489 1.575l.881 2.96c0 .103.054.308-.224.308h-1.992a.275.275 0 0 1-.296-.205l-.831-2.636a1.343 1.343 0 0 0-1.456-.974h-.985v3.544c0 .239-.088.276-.312.276" fill="#010101"/><defs><linearGradient id="b" x1="-.766" y1="7" x2="-.766" y2="23.635" gradientUnits="userSpaceOnUse"><stop stop-color="#5C1A52"/><stop offset=".25" stop-color="#A51C45"/><stop offset=".4" stop-color="#BD1E35"/><stop offset=".51" stop-color="#D12027"/><stop offset=".65" stop-color="#B41D3B"/><stop offset=".74" stop-color="#A51C45"/><stop offset=".81" stop-color="#8E1B49"/><stop offset=".93" stop-color="#6A1A50"/><stop offset="1" stop-color="#5C1A52"/></linearGradient><linearGradient id="d" x1="-1.943" y1="12.844" x2="9.937" y2="12.844" gradientUnits="userSpaceOnUse"><stop stop-color="#E21E26"/><stop offset=".12" stop-color="#CA1D32"/><stop offset=".25" stop-color="#B51D3D"/><stop offset=".38" stop-color="#A91C43"/><stop offset=".5" stop-color="#A51C45"/><stop offset=".59" stop-color="#931C48"/><stop offset=".75" stop-color="#751B4E"/><stop offset=".9" stop-color="#631A51"/><stop offset="1" stop-color="#5C1A52"/></linearGradient><linearGradient id="f" x1="35.351" y1="7.596" x2="35.351" y2="24.097" gradientUnits="userSpaceOnUse"><stop stop-color="#5C1A52"/><stop offset=".2" stop-color="#931B48"/><stop offset=".26" stop-color="#A51C45"/><stop offset=".5" stop-color="#D12027"/><stop offset=".58" stop-color="#BD1E35"/><stop offset=".68" stop-color="#AB1D41"/><stop offset=".75" stop-color="#A51C45"/><stop offset=".78" stop-color="#9B1C47"/><stop offset=".93" stop-color="#6D1A4F"/><stop offset="1" stop-color="#5C1A52"/></linearGradient><linearGradient id="h" x1="4.227" y1="42.548" x2="47.509" y2="42.548" gradientUnits="userSpaceOnUse"><stop stop-color="#219CD8"/><stop offset=".15" stop-color="#2299D5"/><stop offset=".26" stop-color="#2690CC"/><stop offset=".36" stop-color="#2D81BC"/><stop offset=".45" stop-color="#376BA5"/><stop offset=".53" stop-color="#444F88"/><stop offset=".61" stop-color="#532D65"/><stop offset=".65" stop-color="#5C1A52"/><stop offset=".69" stop-color="#661A50"/><stop offset=".75" stop-color="#821B4B"/><stop offset=".82" stop-color="#A51C45"/><stop offset=".96" stop-color="#D41E2D"/><stop offset="1" stop-color="#E21E26"/></linearGradient><linearGradient id="j" x1="46.386" y1="21.389" x2="23.46" y2="21.389" gradientUnits="userSpaceOnUse"><stop stop-color="#E21E26"/><stop offset=".5" stop-color="#A51C45"/><stop offset=".59" stop-color="#931C48"/><stop offset=".75" stop-color="#751B4E"/><stop offset=".9" stop-color="#631A51"/><stop offset="1" stop-color="#5C1A52"/></linearGradient></defs></svg>